<svg width="300" height="66" viewBox="0 0 300 66" fill="none" xmlns="http://www.w3.org/2000/svg">
<path d="M66.1709 54H75.4555L71.9125 40.3871C73.8488 40.2997 75.7889 40.3246 77.7217 40.4633L79 32.8031C68.4478 31.9016 57.8416 33.96 48.3006 38.8539L58.5381 21.2997L60.8818 31.5692C63.6145 30.9015 66.4207 30.4334 69.284 30.1798L64.5756 12H54.8917L30 54H39.8769C46.4934 47.8428 54.6141 43.4378 63.5849 41.4764C64.3456 45.6095 65.213 49.9671 66.1709 54V54Z" fill="white"/>
<path d="M254 16.8349C252.326 14.6697 250.472 13.1559 248.437 12.2936C246.403 11.4313 243.864 11 240.821 11C236.409 11 232.491 12.0828 229.068 14.249C225.646 16.4142 223.591 19.4827 222.907 23.4523C222.564 25.7791 222.679 27.7942 223.249 29.4982C223.819 31.2029 224.808 32.5465 226.216 33.5294C227.622 34.5115 229.145 35.2533 230.78 35.7545C232.415 36.256 234.336 36.6473 236.542 36.9285C239.053 37.2485 240.878 37.75 242.019 38.4318C243.16 39.1136 243.731 40.1564 243.731 41.56C243.731 43.3644 242.903 44.7888 241.248 45.8316C239.594 46.8744 237.455 47.3959 234.83 47.3959C232.663 47.3959 230.551 46.9238 228.498 45.9817C226.443 45.0396 224.847 43.6257 223.706 41.7405L218 48.7795C219.37 51.1451 221.442 52.9496 224.219 54.1937C226.996 55.4367 230.038 56.0379 233.347 55.9981C236.923 55.9581 240.098 55.4569 242.875 54.4939C245.652 53.5319 247.972 51.8574 249.835 49.4709C251.699 47.0844 252.631 44.0872 252.631 40.4774C252.631 37.9504 251.984 35.8154 250.691 34.0707C249.398 32.3262 247.81 31.0727 245.927 30.3109C244.044 29.5485 241.848 29.047 239.337 28.8068C236.675 28.5664 234.707 28.1552 233.433 27.5732C232.158 26.9919 231.521 25.9596 231.521 24.4752C231.521 22.8712 232.301 21.5776 233.861 20.5948C235.42 19.6129 237.303 19.1209 239.509 19.1209C241.182 19.1209 242.799 19.4019 244.358 19.9633C245.918 20.5255 247.134 21.3669 248.01 22.4903L254 16.8349V16.8349Z" fill="white"/>
<path d="M213.29 45.3597H191.982L193.383 36.9002H212.729L214.075 28.6795H194.729L196.075 20.5798H216.598L218 12H188.898L182 54H211.887L213.29 45.3597Z" fill="white"/>
<path d="M131.921 54L139 12H130.08L123 54H131.921Z" fill="white"/>
<path d="M114.969 53.2801L106.493 39.36C110.46 37.9202 113.369 35.9596 115.221 33.4799C117.074 31 118 27.8601 118 24.0599C118 20.6197 116.924 17.7496 114.773 15.4497C112.62 13.1501 109.543 12 105.539 12H86.9043L80 54H88.7563L91.0575 40.2002H97.5684L105.315 54H114.857L114.969 53.2801V53.2801ZM104.248 20.0399C105.894 20.0399 107.129 20.5798 107.953 21.6596C108.776 22.7396 109.188 24.02 109.188 25.4997C109.188 27.1799 108.57 28.7297 107.335 30.1495C106.101 31.5702 104.436 32.2796 102.34 32.2796H92.3485L94.3696 20.0399H104.248Z" fill="white"/>
<path d="M163.337 42.1202C168.797 42.1202 173.107 40.4199 176.263 37.0195C179.421 33.62 181 29.4797 181 24.5998C181 20.9198 179.913 17.8993 177.74 15.5399C175.567 13.1795 172.4 12 168.241 12H149.854L143 54H151.692L153.642 42.1202H163.337V42.1202ZM157.097 20.8801H166.792C168.5 20.8801 169.819 21.3896 170.747 22.4099C171.676 23.4299 172.141 24.7002 172.141 26.2194C172.141 28.1803 171.472 29.8898 170.134 31.3495C168.797 32.8102 166.996 33.5394 164.73 33.5394H155.035L157.097 20.8801V20.8801Z" fill="white"/>
<path d="M20.3371 42.1202C25.7975 42.1202 30.1067 40.4199 33.2636 37.0195C36.4214 33.62 38 29.4797 38 24.5998C38 20.9198 36.9129 17.8993 34.7403 15.5399C32.5669 13.1795 29.4004 12 25.2407 12H6.85371L0 54H8.69214L10.642 42.1202H20.3371ZM14.0971 20.8801H23.7919C25.5002 20.8801 26.8186 21.3896 27.7476 22.4099C28.6764 23.4299 29.1409 24.7002 29.1409 26.2194C29.1409 28.1803 28.4724 29.8898 27.1346 31.3495C25.7975 32.8102 23.9962 33.5394 21.7303 33.5394H12.0353L14.0971 20.8801V20.8801Z" fill="white"/>
<path d="M287.171 54H296.455L292.913 40.3871C294.849 40.2997 296.789 40.3246 298.722 40.4633L300 32.8031C289.448 31.9016 278.842 33.96 269.301 38.8539L279.538 21.2997L281.882 31.5692C284.615 30.9015 287.421 30.4334 290.284 30.1798L285.576 12H275.892L251 54H260.877C267.494 47.8428 275.614 43.4378 284.585 41.4764C285.346 45.6095 286.213 49.9671 287.171 54V54Z" fill="white"/>
</svg>
